PathFileType	4	(X/Y/Z)	 s09c0403.trc
DataRate	CameraRate	NumFrames	NumMarkers	Units	OrigDataRate	OrigDataStartFrame	OrigNumFrames
200	200	7	50	mm	200	1001	2000
Frame#	Time	racr			lacr			c7			jug			rlel			rdr			llel			ldr			s2			lic			ric			lasi			rasi			rpsi			lpsi			rgt			lgt			rth1			rth2			rth3			rth4			rlfc			rmfc			rsh1			rsh2			rsh3			rsh4			rlmal			rmmal			rcal			rtoe			rmt5			lth1			lth2			lth4			lth3			llfc			lmfc			llmal			lmmal			lcal			lmt5			lsh1			lsh2			lsh3			lsh4			ltoe			SBIKE			LBIKE			RBIKE			
		X1	Y1	Z1	X2	Y2	Z2	X3	Y3	Z3	X4	Y4	Z4	X5	Y5	Z5	X6	Y6	Z6	X7	Y7	Z7	X8	Y8	Z8	X9	Y9	Z9	X10	Y10	Z10	X11	Y11	Z11	X12	Y12	Z12	X13	Y13	Z13	X14	Y14	Z14	X15	Y15	Z15	X16	Y16	Z16	X17	Y17	Z17	X18	Y18	Z18	X19	Y19	Z19	X20	Y20	Z20	X21	Y21	Z21	X22	Y22	Z22	X23	Y23	Z23	X24	Y24	Z24	X25	Y25	Z25	X26	Y26	Z26	X27	Y27	Z27	X28	Y28	Z28	X29	Y29	Z29	X30	Y30	Z30	X31	Y31	Z31	X32	Y32	Z32	X33	Y33	Z33	X34	Y34	Z34	X35	Y35	Z35	X36	Y36	Z36	X37	Y37	Z37	X38	Y38	Z38	X39	Y39	Z39	X40	Y40	Z40	X41	Y41	Z41	X42	Y42	Z42	X43	Y43	Z43	X44	Y44	Z44	X45	Y45	Z45	X46	Y46	Z46	X47	Y47	Z47	X48	Y48	Z48	X49	Y49	Z49	X50	Y50	Z50	
1001	5.0050	766.486472	1217.584611	-102.640239	770.425403	1171.517466	-474.560667	777.822422	1275.776729	-296.733766	757.496288	1136.253774	-287.531577	574.841598	1091.925117	30.598846	691.266015	906.771531	-51.589859	514.269428	1062.215545	-533.822881	674.032819	909.402158	-448.719326	287.928312	1180.079554	-190.321083	382.044460	1162.592856	-372.440415	453.458740	1113.988442	-86.422854	412.096894	1093.942747	-364.289125	466.125110	1051.618125	-122.403642	338.359612	1193.679388	-137.219541	311.453265	1216.726597	-242.779113	381.347674	985.212963	-41.374925	327.567277	1059.595390	-411.050030	393.246278	855.934093	-55.295039	421.565392	773.335724	-70.515929	397.456816	688.108609	-77.901392	446.765941	775.709706	-97.257164	387.342013	595.078529	-108.495020	350.671827	582.233103	-203.062261	325.421992	516.231570	-69.078774	307.717794	429.097919	-80.506418	250.800149	362.719966	-74.647714	328.584413	420.949785	-113.833518	199.054396	273.347482	-70.097422	202.715034	281.359379	-146.737325	115.770456	284.484157	-108.610892	321.319717	116.253149	-133.487043	251.697223	151.283890	-61.244695	440.267040	970.530076	-417.082391	520.829716	941.270794	-413.205148	541.701976	969.129480	-399.440006	578.534920	872.474853	-416.747718	634.912121	791.899154	-404.075756	646.068613	767.170507	-302.868359	323.050235	590.698326	-408.094814	340.320184	595.569848	-334.134463	235.399110	594.832426	-369.296335	367.344402	481.842232	-432.196846	551.777056	737.846886	-422.449480	491.009583	675.503823	-414.018483	405.258996	652.326703	-411.952007	506.853678	653.224495	-386.315062	458.138779	456.755428	-364.203495	-64.746834	851.939745	-238.656738	20.920311	85.117511	-442.073939	21.109563	84.151805	-43.714802	
1002	5.0100	766.090111	1217.175012	-103.641273	771.526347	1169.615988	-474.946725	778.179408	1275.478210	-297.733528	756.924645	1135.758127	-288.681121	574.557910	1091.291739	29.086012	691.370044	906.549049	-52.301618	514.690014	1062.243586	-534.621714	673.755350	909.819110	-449.161440	289.024946	1182.322605	-190.208633	381.496977	1164.240534	-373.467959	454.324868	1116.202166	-87.207152	410.681272	1094.919913	-365.277713	465.039321	1054.791683	-124.099822	339.434091	1195.934622	-137.489564	312.360969	1218.631311	-242.896728	382.625400	987.428128	-41.714860	326.873945	1061.784727	-411.074054	394.512232	857.813639	-55.486815	422.754881	775.348910	-70.455524	398.597215	690.098601	-77.722842	448.632192	777.872918	-96.433176	387.064578	596.700507	-107.910838	351.441285	583.833924	-202.623530	323.509750	519.160609	-68.727885	304.057791	432.532099	-80.038748	245.608142	367.366572	-74.376555	324.807992	423.308055	-113.597930	192.341757	278.700736	-69.847592	196.551617	286.446671	-146.832555	110.059968	290.817545	-109.340184	311.180127	119.030834	-133.201362	242.277384	155.494007	-61.225627	438.235189	971.762861	-417.413040	518.581322	942.186755	-414.960968	539.943076	970.009347	-401.693571	575.931759	873.216570	-418.464787	633.840499	792.613697	-406.402167	646.533511	768.415008	-305.315113	326.842581	584.128302	-407.938989	343.261084	590.031102	-333.652442	238.984494	585.157817	-368.766725	375.337073	477.843922	-432.545652	552.111963	736.373992	-424.319598	492.739134	672.784882	-415.209474	407.514728	647.759008	-412.620058	509.119188	651.236927	-387.292437	467.444787	456.722298	-365.028165	-64.752758	851.937921	-238.697390	20.915242	85.102862	-442.079975	21.124972	84.176372	-43.711434	
1003	5.0150	766.112778	1216.255316	-104.753241	772.330253	1168.010295	-475.093410	778.638384	1275.279733	-298.301043	756.469840	1135.521378	-289.628271	574.083513	1090.660618	27.503279	691.406956	906.421524	-52.828439	514.916563	1062.364455	-535.482549	673.589720	909.811338	-449.580610	289.772023	1184.768013	-190.373628	381.134107	1165.724675	-374.724612	455.128452	1118.717333	-87.905607	410.608909	1096.336247	-366.491265	465.858380	1056.738149	-124.492777	340.309418	1198.308142	-138.003582	313.181589	1220.396581	-243.484497	383.627416	989.872026	-41.994156	326.422626	1063.827943	-411.152281	395.791948	859.949886	-55.616944	424.161389	777.404870	-70.413305	400.557503	692.147000	-77.728249	450.186517	780.000531	-96.154225	387.693488	598.322691	-107.406336	353.157889	585.610595	-202.215676	322.307416	522.223196	-68.351515	300.858694	435.996122	-79.657818	241.057436	372.243782	-74.237714	321.784446	426.335226	-112.900883	186.056736	284.527346	-69.713436	190.408403	292.353309	-146.901047	104.498984	298.291937	-109.836711	301.224613	121.959627	-133.037431	233.227374	160.260763	-61.175626	436.091291	972.324425	-417.889652	516.174999	942.009932	-416.494017	537.986742	969.823119	-403.943208	572.864833	872.583134	-420.368505	632.286389	792.265895	-408.568667	646.605829	768.982496	-307.297646	330.344568	577.074298	-408.337577	346.224481	583.532508	-333.439499	242.388741	574.402915	-368.789500	383.277477	473.074748	-432.706612	552.112225	733.741674	-425.929684	493.996945	668.966766	-416.329911	409.377723	642.089579	-413.341540	510.958472	648.135555	-387.966335	476.218285	455.972402	-365.201283	-64.769871	851.955922	-238.769805	20.911210	85.110540	-442.091546	21.101891	84.211543	-43.726637	
1004	5.0200	765.976152	1215.500677	-105.342217	772.830620	1166.879785	-475.170675	779.076176	1275.222743	-298.835489	756.072407	1135.456696	-290.402280	573.552840	1089.953883	25.888709	691.375351	906.376984	-53.147910	515.272568	1062.424243	-536.391200	673.402536	909.795164	-450.092581	290.340393	1187.215280	-190.896113	381.076614	1166.984421	-375.962883	455.891270	1121.291797	-88.484603	410.690812	1097.475574	-367.589095	466.749247	1058.641893	-125.052940	339.295567	1200.923370	-138.172523	314.253388	1222.141660	-244.297131	384.313420	992.548936	-42.367400	326.100704	1065.603486	-411.303538	397.134269	862.228751	-55.680585	425.896620	779.662673	-70.311935	402.443159	694.208050	-78.104977	450.883570	781.980067	-97.353867	389.279088	600.198678	-106.738116	355.694134	587.628256	-201.861188	321.829612	525.490210	-68.010683	298.370456	439.863644	-79.290919	236.961490	377.451901	-74.092453	319.294578	429.458938	-112.331666	180.237307	290.896852	-69.572538	184.963379	298.431885	-147.024565	99.067940	306.471583	-110.023582	291.558282	125.633548	-132.848825	224.430306	165.589243	-61.143600	434.075273	972.312788	-418.374543	513.755156	941.020075	-417.836169	536.188517	968.701913	-406.112548	569.565679	870.881436	-422.018275	630.600631	790.611966	-409.464828	645.850109	768.496205	-309.528953	333.662670	568.617631	-408.545863	349.369359	576.139609	-333.732099	245.974766	562.590579	-369.335191	390.998946	467.555618	-432.809482	551.566659	730.198954	-427.739333	494.908443	664.277502	-417.309953	410.947095	635.514827	-414.184089	512.408423	644.332771	-388.893532	484.456258	454.641952	-365.454116	-64.758194	851.965282	-238.852346	20.901526	85.104033	-442.108287	21.076362	84.170813	-43.754648	
1005	5.0250	765.920024	1214.587843	-105.679638	773.147400	1165.871037	-474.930641	779.491896	1275.374776	-298.981597	755.790901	1135.521008	-290.880422	572.844185	1089.391777	24.396698	691.308106	906.403606	-53.279742	515.314813	1062.582865	-537.352997	673.236265	909.800856	-450.698820	290.896786	1189.438637	-191.987722	381.176244	1168.086925	-377.298485	456.669199	1123.880421	-88.941073	410.792032	1098.430115	-368.530878	467.403746	1060.599853	-125.656865	341.476859	1203.129991	-140.016798	314.947992	1223.987974	-245.716954	384.557539	995.170329	-42.981130	325.850921	1067.139126	-411.633928	398.467172	864.278797	-56.727483	427.813915	781.898910	-70.246533	404.821975	696.431371	-77.859358	454.956279	785.025841	-94.852367	391.567194	602.039833	-106.380524	359.041335	589.669188	-201.642507	322.225472	528.819868	-67.675658	296.543351	443.810568	-78.949069	233.497554	383.106528	-73.956301	317.398255	433.057649	-111.607699	174.801634	297.660048	-69.411202	179.814331	305.241750	-147.068121	94.056951	315.210467	-110.152218	282.218233	129.730779	-132.626439	216.059897	171.432548	-61.063501	432.212048	971.807972	-418.776402	511.450004	939.565364	-419.131734	535.360423	967.498686	-408.575038	566.334323	868.472758	-423.511124	628.287162	788.433520	-411.278407	644.559389	767.204035	-311.637700	336.954492	559.314449	-408.774854	352.207375	567.997319	-334.162164	249.210619	550.271253	-369.493163	398.092450	461.300886	-433.316329	550.604339	725.852200	-429.351274	495.570965	658.673070	-418.377704	412.312150	628.022486	-415.135429	513.398508	639.466859	-389.682300	492.060534	452.563670	-366.326262	-64.766710	851.945642	-238.926640	20.886004	85.081509	-442.127348	21.064403	84.172506	-43.774521	
1006	5.0300	765.905960	1213.561665	-105.653675	773.155742	1165.646353	-474.933529	779.846935	1275.604054	-298.817122	755.570310	1135.728123	-291.041939	572.007471	1088.923258	23.049168	691.197278	906.479650	-53.250616	515.600993	1062.795778	-538.391200	672.916846	909.794936	-451.432846	291.285416	1191.812323	-193.188162	381.496225	1169.012569	-378.595447	456.929508	1126.579210	-89.340820	411.012185	1099.187466	-369.274646	467.830239	1063.334379	-126.133904	339.809813	1205.815404	-140.558685	315.505419	1225.868537	-247.325766	384.553773	998.036677	-43.261884	325.680473	1068.313574	-412.047381	399.928227	866.517511	-56.914711	430.103193	784.569531	-70.094317	408.458914	698.640151	-77.834475	457.507335	787.413222	-94.143731	394.578938	603.875073	-106.168205	363.062101	591.712755	-201.409902	323.558025	532.125593	-67.352208	295.438887	447.953670	-78.770164	230.706293	389.071499	-73.793267	316.156971	436.586512	-111.249997	169.971637	304.666444	-69.267149	175.219082	312.453180	-147.118207	89.572160	324.269803	-110.254805	273.212670	134.352043	-132.509221	208.091401	177.831135	-61.023462	430.486338	971.040505	-419.308952	509.292897	937.783998	-420.484805	534.361359	965.660036	-410.125905	562.820965	865.792559	-425.429138	625.541865	785.590591	-413.009716	642.765388	765.207492	-313.665440	340.046241	549.477403	-409.232930	354.977650	559.145978	-334.833950	252.476011	537.421898	-369.966414	404.892128	454.273766	-433.740261	549.366110	720.869815	-430.946834	495.978083	652.512525	-419.470396	413.455801	619.854777	-416.117806	514.142261	634.377581	-390.518772	499.253362	449.636112	-366.967901	-64.782078	851.923606	-239.013729	20.868638	85.059281	-442.133108	21.041693	84.161893	-43.798830	
1007	5.0350	765.879531	1212.450913	-105.320339	773.014143	1165.861717	-474.964361	780.204639	1275.905474	-298.445236	755.428548	1136.159665	-290.985588	571.175594	1088.830364	21.893079	691.046888	906.587158	-53.134818	515.502320	1063.082539	-539.392155	672.543994	909.843451	-452.096540	291.664140	1193.861640	-194.806814	381.943099	1169.640924	-379.755958	456.626284	1129.579850	-88.882471	411.288461	1099.629156	-369.829500	467.762590	1066.274951	-125.079844	339.845599	1208.143985	-142.088054	316.290426	1227.450662	-249.136393	384.553592	1000.885078	-43.431653	325.666220	1069.165187	-412.497393	401.495453	868.762932	-56.961059	432.931106	786.955666	-69.535319	411.575605	701.071356	-78.134841	460.567378	790.619745	-93.094998	398.506427	605.780111	-105.473011	367.682073	593.714244	-201.223057	325.728717	535.514093	-67.167633	295.111842	452.171201	-78.656330	228.692000	395.308982	-73.629120	315.434483	440.149473	-111.102221	165.666749	312.347454	-69.046340	171.112135	319.979845	-147.040776	85.631745	333.773226	-110.319761	264.600330	139.522062	-132.317616	200.594421	184.597715	-60.964672	428.907605	970.006345	-420.029262	507.252078	935.770961	-421.820525	527.004461	964.137272	-414.323605	559.931635	863.207330	-426.355694	622.443448	782.114706	-414.714516	640.404453	762.596130	-315.538218	342.791683	539.425145	-410.057527	357.622523	549.688609	-335.500091	255.774523	523.833499	-370.534851	411.388444	446.608824	-434.200996	547.845584	715.301760	-432.505827	496.136767	645.674100	-420.534674	414.608807	610.851256	-417.029378	514.560702	628.116328	-390.720496	506.049989	445.876933	-367.007154	-64.772843	851.928544	-239.103205	20.856111	85.041971	-442.143808	21.018768	84.202958	-43.834869	
